<?xml version="1.0" encoding="utf-8"?>
<svg viewBox="-847 484.7 224 112.3" style="enable-background:new -847 484.7 224 112.3;" xmlns="http://www.w3.org/2000/svg">
  <defs>
    <style type="text/css">
	.st0{fill:#2C2C2C;}
	.st1{fill:#222222;}
	.st2{fill:#7CB2E8;}
	.st3{fill:#FF6666;}
	.st4{fill:#FF69F8;}
	.st5{fill:#40E2A0;}
	.st6{fill:#D3D3D3;}
	.st7{fill:#DDDDDD;}
	.st8{fill:#834D17;}
	.st9{fill:#009999;}
	.st10{fill:#009607;}
	.st11{fill:#BF1D5F;}
</style>
  </defs>
  <g>
    <g>
      <path class="st0" d="M-819.7,538.3c-14.5,0-26.3-11.8-26.3-26.3s11.8-26.3,26.3-26.3s26.3,11.8,26.3,26.3 S-805.2,538.3-819.7,538.3z"/>
      <path class="st1" d="M-819.7,486.7c13.9,0,25.3,11.3,25.3,25.3c0,13.9-11.3,25.3-25.3,25.3S-845,525.9-845,512 C-845,498.1-833.6,486.7-819.7,486.7 M-819.7,484.7c-15,0-27.3,12.2-27.3,27.3c0,15,12.2,27.3,27.3,27.3s27.3-12.2,27.3-27.3 C-792.5,497-804.7,484.7-819.7,484.7L-819.7,484.7z" style="fill: rgb(44, 44, 44);"/>
    </g>
  </g>
  <g>
    <g>
      <path class="st0" d="M-763.2,538.2c-14.5,0-26.3-11.8-26.3-26.3c0-14.5,11.8-26.3,26.3-26.3S-737,497.5-737,512 C-737,526.5-748.7,538.2-763.2,538.2z"/>
      <path class="st1" d="M-763.2,486.8c13.9,0,25.3,11.3,25.3,25.3s-11.3,25.3-25.3,25.3s-25.3-11.3-25.3-25.3 S-777.1,486.8-763.2,486.8 M-763.2,484.8c-15,0-27.3,12.2-27.3,27.3s12.2,27.3,27.3,27.3S-736,527-736,512 S-748.2,484.8-763.2,484.8L-763.2,484.8z" style="fill: rgb(44, 44, 44);"/>
    </g>
  </g>
  <g>
    <g>
      <path class="st0" d="M-706.7,538.8c-14.5,0-26.3-11.8-26.3-26.3s11.8-26.3,26.3-26.3s26.3,11.8,26.3,26.3 S-692.2,538.8-706.7,538.8z"/>
      <path class="st1" d="M-706.7,487.4c13.9,0,25.3,11.3,25.3,25.3c0,13.9-11.3,25.3-25.3,25.3s-25.3-11.3-25.3-25.3 C-732,498.7-720.6,487.4-706.7,487.4 M-706.7,485.4c-15,0-27.3,12.2-27.3,27.3c0,15,12.2,27.3,27.3,27.3s27.3-12.2,27.3-27.3 C-679.5,497.6-691.7,485.4-706.7,485.4L-706.7,485.4z" style="fill: rgb(44, 44, 44);"/>
    </g>
  </g>
  <g>
    <g>
      <g>
        <path class="st0" d="M-650.2,539.5c-14.5,0-26.3-11.8-26.3-26.3s11.8-26.3,26.3-26.3s26.3,11.8,26.3,26.3 S-635.7,539.5-650.2,539.5z"/>
        <path class="st1" d="M-650.2,488c13.9,0,25.3,11.3,25.3,25.3s-11.3,25.3-25.3,25.3s-25.3-11.3-25.3-25.3S-664.1,488-650.2,488 M-650.2,486c-15,0-27.3,12.2-27.3,27.3s12.2,27.3,27.3,27.3s27.3-12.2,27.3-27.3S-635.2,486-650.2,486L-650.2,486z" style="fill: rgb(44, 44, 44);"/>
      </g>
    </g>
  </g>
  <g>
    <g>
      <path class="st6" d="M-819.7,596.1c-14.5,0-26.3-11.8-26.3-26.3s11.8-26.3,26.3-26.3s26.3,11.8,26.3,26.3 S-805.2,596.1-819.7,596.1z" style="fill: rgb(62, 216, 210);"/>
      <path class="st7" d="M-819.7,544.5c13.9,0,25.3,11.3,25.3,25.3s-11.3,25.3-25.3,25.3s-25.3-11.3-25.3-25.3 S-833.6,544.5-819.7,544.5 M-819.7,542.5c-15,0-27.3,12.2-27.3,27.3s12.2,27.3,27.3,27.3s27.3-12.2,27.3-27.3 S-804.7,542.5-819.7,542.5L-819.7,542.5z" style="fill: rgb(62, 216, 210);"/>
    </g>
  </g>
  <g>
    <g>
      <path class="st6" d="M-763.2,595.9c-14.5,0-26.3-11.8-26.3-26.3s11.8-26.3,26.3-26.3s26.3,11.8,26.3,26.3 S-748.7,595.9-763.2,595.9z" style="fill: rgb(62, 216, 210);"/>
      <path class="st7" d="M-763.2,544.5c13.9,0,25.3,11.3,25.3,25.3s-11.3,25.3-25.3,25.3s-25.3-11.3-25.3-25.3 S-777.1,544.5-763.2,544.5 M-763.2,542.5c-15,0-27.3,12.2-27.3,27.3s12.2,27.3,27.3,27.3s27.3-12.2,27.3-27.3 S-748.2,542.5-763.2,542.5L-763.2,542.5z" style="fill: rgb(62, 216, 210);"/>
    </g>
  </g>
  <g>
    <g>
      <path class="st6" d="M-706.7,595.9c-14.5,0-26.3-11.8-26.3-26.3s11.8-26.3,26.3-26.3s26.3,11.8,26.3,26.3 S-692.2,595.9-706.7,595.9z" style="fill: rgb(62, 216, 210);"/>
      <path class="st7" d="M-706.7,544.5c13.9,0,25.3,11.3,25.3,25.3s-11.3,25.3-25.3,25.3s-25.3-11.3-25.3-25.3 S-720.6,544.5-706.7,544.5 M-706.7,542.5c-15,0-27.3,12.2-27.3,27.3s12.2,27.3,27.3,27.3s27.3-12.2,27.3-27.3 S-691.7,542.5-706.7,542.5L-706.7,542.5z" style="fill: rgb(62, 216, 210);"/>
    </g>
  </g>
  <g>
    <g>
      <g>
        <g>
          <path class="st6" d="M-650.2,596c-14.5,0-26.3-11.8-26.3-26.3s11.8-26.3,26.3-26.3s26.3,11.8,26.3,26.3S-635.7,596-650.2,596z" style="fill: rgb(62, 216, 210);"/>
          <path class="st7" d="M-650.2,544.5c13.9,0,25.3,11.3,25.3,25.3s-11.3,25.3-25.3,25.3s-25.3-11.3-25.3-25.3 S-664.1,544.5-650.2,544.5 M-650.2,542.5c-15,0-27.3,12.2-27.3,27.3s12.2,27.3,27.3,27.3s27.3-12.2,27.3-27.3 S-635.2,542.5-650.2,542.5L-650.2,542.5z" style="fill: rgb(62, 216, 210);"/>
        </g>
      </g>
    </g>
  </g>
</svg>